HIERARCHY
ROOT pelvis
{
  OFFSET 0 100 0
  CHANNELS 6 Xposition Yposition Zposition Zrotation Xrotation Yrotation
  JOINT pelvis_right_femur
  {
    OFFSET -10.78128 -3.44521 -0.5502486
    CHANNELS 3 Zrotation Xrotation Yrotation
    JOINT right_femur_tibia
    {
      OFFSET -0.8047443 -44.0398 -0.1307829
      CHANNELS 3 Zrotation Xrotation Yrotation
      JOINT right_tibia_foot
      {
        OFFSET 3.006224 -47.83518 -5
        CHANNELS 3 Zrotation Xrotation Yrotation
        End Site
        {
          OFFSET 0 -5 15
        }
      }
    }
  }
  JOINT pelvis_left_femur
  {
    OFFSET 10.78128 -3.44521 -0.5502486
    CHANNELS 3 Zrotation Xrotation Yrotation
    JOINT left_femur_tibia
    {
      OFFSET 0.8047443 -44.0398 -0.1307829
      CHANNELS 3 Zrotation Xrotation Yrotation
      JOINT left_tibia_foot
      {
        OFFSET -4.370144 -48.10324 -4.275266
        CHANNELS 3 Zrotation Xrotation Yrotation
        End Site
        {
          OFFSET 0 -5 15
        }
      }
    }
  }
  JOINT pelvis_spine1
  {
    OFFSET 0 6.468898 -3.129235
    CHANNELS 3 Zrotation Xrotation Yrotation
    JOINT spine1
    {
      OFFSET 0 23.15396 4.99043
      CHANNELS 3 Zrotation Xrotation Yrotation
      JOINT spine2
      {
        OFFSET 0 20.79997 -5.064912
        CHANNELS 3 Zrotation Xrotation Yrotation
        JOINT neck
        {
          OFFSET 0 14.38658 9.616178
          CHANNELS 3 Zrotation Xrotation Yrotation
          End Site
          {
            OFFSET 0 20 0
          }
        }
      }
      JOINT right_manubrium
      {
        OFFSET -5.722621 16.35077 3.967754
        CHANNELS 3 Zrotation Xrotation Yrotation
        JOINT right_clavicle
        {
          OFFSET -13.16364 1.694482 -4.693211
          CHANNELS 3 Zrotation Xrotation Yrotation
          JOINT right_humerus
          {
            OFFSET -28.5034 -0.3100689 -2.792744
            CHANNELS 3 Zrotation Xrotation Yrotation
            JOINT right_radius
            {
              OFFSET -25.15693 0.02248979 -1.271978
              CHANNELS 3 Zrotation Xrotation Yrotation
              End Site
              {
                OFFSET -15 0 0
              }
            }
          }
        }
      }
      JOINT left_manubrium
      {
        OFFSET 5.722621 16.35077 3.967754
        CHANNELS 3 Zrotation Xrotation Yrotation
        JOINT left_clavicle
        {
          OFFSET 13.16364 1.694482 -4.693211
          CHANNELS 3 Zrotation Xrotation Yrotation
          JOINT left_humerus
          {
            OFFSET 29.39168 -1.063119 -2.237045
            CHANNELS 3 Zrotation Xrotation Yrotation
            JOINT left_radius
            {
              OFFSET 24.59957 -0.9528479 0.9047498
              CHANNELS 3 Zrotation Xrotation Yrotation
              End Site
              {
                OFFSET 15 -0 -0
              }
            }
          }
        }
      }
    }
  }
}
MOTION
Frames: 17
Frame Time: 0.0416666666667
28.70323 102.0654 243.0159 1.705315 -8.618863 -5.453361 0.0824009 23.0842 8.664816 -0 8.664786 -0 6.249422 -15.47685 1.716431 1.743188 -27.73135 -3.697516 -0 29.0665 -0 -9.009943 -5.482262 20.06258 -0.7767164 -0.2045741 10.03823 -2.020692 10.12395 -1.820392 2.25827 21.63248 5.178709 1.837707 -14.69472 6.870804 1.162916 -22.12705 11.81786 79.96712 21.9598 -5.545332 -0 0 27.13505 -26.42688 14.28786 13.62153 5.126923 -14.63526 -2.768008 -93.94655 21.75132 25.52709 0 0 -12.31013 -3.963329 6.506301 16.35036
29.30382 101.0601 249.6686 1.617535 -8.302427 -5.915468 -0.6034913 24.47503 8.696458 -0 12.86058 -0 7.146618 -15.18827 2.02517 0.8425785 -28.09972 -4.670738 -0 25.09137 -0 -8.84125 -5.8149 19.48988 -0.8154426 -0.3950256 9.910905 -2.317673 9.541279 -1.784623 2.402415 21.483 5.126739 1.670663 -14.86534 7.121748 0.8120992 -22.38316 11.44787 79.67445 21.40092 -4.420017 -0 0 28.29293 -26.62137 13.98111 13.94213 4.838124 -13.66528 -2.780031 -94.2482 21.99783 26.48084 0 0 -10.58605 -4.351454 6.414137 17.0353
29.98188 100.3636 256.8505 1.779602 -7.927089 -6.363356 -1.670258 25.23944 8.643804 -0 18.25947 -0 7.977033 -13.56671 1.921786 -0.7672161 -26.52815 -6.051768 -0 24.05311 -0 -8.739377 -5.81685 18.90526 -1.121586 -1.117385 9.893504 -2.48914 9.045693 -1.805557 2.576932 21.46053 5.084112 1.542914 -14.92735 7.398787 0.6857142 -22.10007 10.97302 79.86033 21.0466 -4.199875 -0 0 28.46134 -26.645 13.75666 14.04418 4.556907 -12.78204 -2.818008 -94.35641 22.30388 26.93781 0 0 -9.188535 -4.674306 6.377834 17.64879
30.63446 100.2286 264.4021 2.126677 -7.854381 -6.658288 -2.913942 25.09445 8.263681 -0 25.09956 -0 8.596689 -11.00112 1.191919 -2.464544 -23.72595 -7.418359 -0 24.58821 -0 -8.656696 -5.798928 18.41468 -1.673487 -1.939705 9.891581 -2.553524 8.719237 -1.789318 2.739959 21.60044 5.046294 1.426327 -14.8732 7.669376 0.835112 -21.29312 10.53614 80.48157 20.94854 -4.837777 -0 0 27.49378 -26.44378 13.64722 13.85074 4.361538 -12.19422 -2.866248 -94.07787 22.69099 26.69409 0 0 -8.375484 -4.845198 6.43295 18.04082
31.2073 100.7908 271.9359 2.466973 -8.20027 -6.441588 -3.86541 23.40649 7.465178 -0 33.46814 -0 8.857046 -8.470461 -0.2034401 -4.108494 -19.82586 -8.555844 -0 25.50411 -0 -8.42112 -6.36569 17.92059 -2.251364 -2.380652 9.617111 -2.533857 8.599317 -1.816509 2.839966 21.9094 5.025575 1.279845 -14.729 7.918642 1.267444 -20.14431 10.2415 81.47773 21.12479 -6.138617 -0 0 25.50399 -25.98126 13.65518 13.35392 4.203511 -12.09454 -2.957794 -93.23431 23.17657 25.55545 0 0 -8.266974 -4.789627 6.602406 18.11001
31.7345 101.9305 279.1136 2.706584 -8.865327 -5.673301 -4.096745 19.62426 6.362412 -0 42.50032 -0 8.685726 -6.757868 -2.054081 -5.494321 -14.70727 -9.386834 -0 26.04402 -0 -7.995925 -7.640699 17.35757 -2.650448 -2.247141 8.891993 -2.473711 8.629424 -1.985686 2.801568 22.36049 5.073343 1.057771 -14.48733 8.15141 1.878692 -18.9246 10.11769 82.74161 21.54241 -7.797466 -0 0 22.90899 -25.2778 13.75707 12.66335 4.033594 -12.51189 -3.124821 -91.81759 23.72336 23.48182 0 0 -8.82336 -4.478933 6.882842 17.84861
32.17596 103.4531 285.737 2.711062 -9.673039 -4.740007 -3.641466 13.86445 5.14153 -0 49.98705 -0 8.137189 -6.175214 -3.879932 -6.319381 -8.892872 -9.897268 -0 25.53561 -0 -7.566612 -9.148425 16.75383 -2.790684 -1.601851 7.756505 -2.331612 8.696449 -2.339055 2.625694 22.90063 5.21118 0.7630239 -14.13715 8.391001 2.485525 -17.8446 10.13019 84.15396 22.11267 -9.533853 -0 0 20.24778 -24.40682 13.90784 11.93798 3.910546 -13.31715 -3.400881 -89.97346 24.25523 20.59365 0 0 -9.945902 -3.934811 7.257265 17.30632
32.52363 105.1836 291.7873 2.461933 -10.28717 -3.754584 -2.880416 6.801647 4.038524 -0 53.76112 -0 7.295843 -6.452908 -5.273612 -6.543645 -2.905347 -10.17645 -0 23.9362 -0 -7.309127 -10.46632 16.096 -2.698662 -0.8028641 6.320404 -2.053319 8.694502 -2.956314 2.446986 23.47313 5.383621 0.4681963 -13.7176 8.675333 2.820014 -16.85201 10.08387 85.71379 22.69358 -11.30587 -0 0 17.95267 -23.45606 14.02625 11.29517 3.943979 -14.30717 -3.750818 -87.94297 24.69281 17.13045 0 0 -11.57149 -3.22436 7.707281 16.53722
32.84108 106.7248 297.4058 2.197311 -10.41066 -2.638918 -2.136873 -0.3877718 3.187646 -0 53.05026 -0 6.278777 -6.705949 -6.221018 -6.39788 2.649771 -10.40423 -0 21.49387 -0 -7.219996 -11.61816 15.30106 -2.547205 -0.2481875 4.799669 -1.681741 8.516828 -3.851757 2.379881 23.94506 5.522553 0.2366403 -13.31606 9.001964 2.678228 -15.81397 9.79402 87.34871 23.15019 -13.16263 -0 0 16.18094 -22.51351 14.03602 10.77357 4.222316 -15.30427 -4.089931 -85.92706 24.99479 13.36277 0 0 -13.66148 -2.428166 8.218192 15.56144
33.09244 107.6995 302.7407 2.022163 -10.01728 -1.458574 -1.775966 -7.002311 2.574217 -0 48.09507 -0 5.15079 -6.689813 -6.907504 -6.069852 7.536627 -10.65052 -0 18.71522 -0 -7.201874 -12.83945 14.37886 -2.488627 0.01940645 3.431302 -1.246485 8.157121 -4.901348 2.47612 24.26767 5.540073 0.1078151 -12.95752 9.286976 2.120577 -14.7736 9.284336 88.80848 23.43804 -15.03374 -0 0 14.79424 -21.64109 13.91529 10.31945 4.730756 -16.2993 -4.370333 -83.96893 25.17567 9.478754 0 0 -16.10491 -1.590682 8.783902 14.37853
33.25364 107.9526 308.1858 2.039146 -9.355327 -0.2138921 -1.894446 -12.79827 2.213977 -0 39.90702 -0 3.882486 -6.620682 -7.480772 -5.784842 11.83896 -10.87159 -0 16.3255 -0 -7.182255 -14.25949 13.43214 -2.642298 0.07667575 2.331422 -0.8124406 7.694579 -5.940511 2.737789 24.42811 5.377773 0.09281779 -12.70279 9.451246 1.32697 -13.69472 8.694013 89.98913 23.58636 -16.88646 -0 0 13.50828 -20.83229 13.6903 9.82631 5.411495 -17.30378 -4.559329 -82.09153 25.25478 5.654579 0 0 -18.73837 -0.7065389 9.411384 13.02073
33.32341 107.4657 313.7915 2.255726 -8.531343 0.8320377 -2.435131 -17.40389 1.885378 -0 30.08218 -0 2.489188 -6.802031 -8.020115 -5.687854 15.5597 -10.98109 -0 14.78809 -0 -7.150892 -15.84568 12.54051 -2.958446 -0.005129608 1.624915 -0.4292703 7.219334 -6.713687 3.064348 24.42715 5.084413 0.1455755 -12.60138 9.470071 0.5641391 -12.49368 8.20818 90.98424 23.65448 -18.7266 -0 0 12.00398 -19.98801 13.41292 9.16367 6.158656 -18.33943 -4.586945 -80.3815 25.23053 2.050282 0 0 -21.39581 0.2424519 10.08751 11.56053
33.29586 106.402 319.4215 2.566447 -7.779472 1.489812 -2.943226 -20.97149 1.321816 -0 20.38664 -0 0.9905378 -7.445093 -8.525661 -5.784262 18.73151 -10.90285 -0 14.37775 -0 -7.157869 -17.39112 11.77862 -3.284525 -0.0576773 1.34484 -0.1304828 6.75274 -7.053936 3.364901 24.35981 4.753485 0.223677 -12.62688 9.386859 0.04168105 -11.3891 7.995559 91.7491 23.73529 -20.32984 -0 0 10.21947 -19.05212 13.1342 8.312529 6.79639 -19.39743 -4.47567 -78.91621 25.11875 -1.151834 0 0 -23.78356 1.227516 10.76557 10.10649
33.11335 105.0896 325.1838 2.725102 -7.185283 1.66216 -2.843933 -23.398 0.6534966 -0 12.81949 -0 -0.5109685 -8.438682 -8.976064 -5.84065 21.32184 -10.72765 -0 15.28604 -0 -7.289818 -18.51081 11.22591 -3.459638 0.001254894 1.300887 0.133973 6.3756 -7.058167 3.589249 24.31251 4.434196 0.2991153 -12.74368 9.229011 -0.1452038 -10.46508 8.02202 92.34173 23.85946 -21.60343 -0 0 8.260419 -18.01103 12.87987 7.331898 7.233599 -20.37309 -4.242726 -77.8002 24.96233 -3.673889 0 0 -25.59745 2.179696 11.39917 8.777818
32.71698 103.8446 331.3035 2.589467 -6.892779 1.780465 -2.057678 -24.62016 0.4420392 -0 9.212491 -0 -1.872535 -9.131536 -9.366877 -5.505546 23.39414 -10.63195 -0 17.839 -0 -7.618984 -18.74428 10.93413 -3.367481 -0.0006792985 1.257691 0.3955472 6.110161 -6.903129 3.778018 24.30498 4.13212 0.3848907 -12.95842 9.043674 -0.05832678 -9.661183 8.184585 92.87885 23.99925 -22.53514 -0 0 6.367017 -16.88363 12.65312 6.328137 7.399077 -21.01643 -3.971851 -77.21694 24.85948 -5.238759 0 0 -26.55306 3.00953 11.96381 7.695288
32.12731 102.9248 337.9671 2.138155 -6.786588 2.28108 -0.690162 -24.16578 1.267993 -0 10.09676 -0 -3.00947 -8.880355 -9.465522 -4.583207 24.76987 -10.69457 -0 22.23641 -0 -8.12684 -17.68778 10.99494 -2.937045 -0.3220619 0.9486819 0.6385754 6.016848 -6.84178 3.932669 24.42555 3.808888 0.4874584 -13.16382 8.78064 0.1117266 -8.988805 8.292614 93.33554 24.12271 -23.05348 -0 0 4.857533 -15.7801 12.42084 5.456062 7.346032 -21.09304 -3.686792 -77.3631 24.92403 -5.586306 0 0 -26.44418 3.620876 12.45984 6.970729
31.41603 102.559 345.0412 1.441564 -6.989755 2.643026 0.8781494 -22.27162 2.645656 -0 13.2286 -0 -4.021847 -8.273858 -9.305407 -3.43801 24.99322 -10.76329 -0 28.68404 -0 -8.634468 -15.41925 11.63627 -2.263037 -0.7739728 0.5531968 0.8094702 6.119785 -6.85931 4.02481 24.68531 3.487496 0.5912135 -13.30441 8.44468 0.2386551 -8.628127 8.311369 93.5233 24.2415 -22.99458 -0 0 3.9807 -14.85412 12.14383 4.859638 7.142906 -20.59699 -3.384821 -78.2483 25.17959 -4.643978 0 0 -25.18754 3.939988 12.89392 6.667993
